<?xml version="1.0" encoding="UTF-8"?>
<svg width="16px" height="24px" viewBox="0 0 16 24" version="1.1" xmlns="http://www.w3.org/2000/svg" xmlns:xlink="http://www.w3.org/1999/xlink">
    <!-- Generator: sketchtool 61.2 (101010) - https://sketch.com -->
    <title>F2DE4669-3593-44EB-AB83-B3A76130A059@1.00x</title>
    <desc>Created with sketchtool.</desc>
    <g id="App-1.1-Collection" stroke="none" stroke-width="1" fill="none" fill-rule="evenodd" stroke-linecap="round" stroke-linejoin="round">
        <g id="19" transform="translate(-172.000000, -450.000000)" stroke="#FFFFFF" stroke-width="2">
            <g id="Group-2" transform="translate(150.000000, 432.000000)">
                <g id="mic" transform="translate(23.000000, 19.000000)">
                    <path d="M7,0 C5.34314575,0 4,1.34314575 4,3 L4,11 C4,12.6568542 5.34314575,14 7,14 C8.65685425,14 10,12.6568542 10,11 L10,3 C10,1.34314575 8.65685425,0 7,0 Z" id="Shape"></path>
                    <path d="M14,9 L14,11 C14,14.8659932 10.8659932,18 7,18 C3.13400679,18 0,14.8659932 0,11 L0,9" id="Shape"></path>
                    <line x1="7" y1="18" x2="7" y2="22" id="Shape"></line>
                    <line x1="3" y1="22" x2="11" y2="22" id="Shape"></line>
                </g>
            </g>
        </g>
    </g>
</svg>